<?xml version="1.0" standalone="no"?><!DOCTYPE svg PUBLIC "-//W3C//DTD SVG 1.1//EN" "http://www.w3.org/Graphics/SVG/1.1/DTD/svg11.dtd"><svg t="1622168055704" class="icon" viewBox="0 0 1024 1024" version="1.1" xmlns="http://www.w3.org/2000/svg" p-id="2450" xmlns:xlink="http://www.w3.org/1999/xlink" width="200" height="200"><defs><style type="text/css"></style></defs><path d="M767.5 814.7c-52.1 15.3-77.8-49.2-165.3-44.4-65.9 3.6-73.3 41.5-136.1 49.2-89.4 10.9-177.8-53.2-225-115.4-15-19.7-78.2-108.4-56.2-224.8 13.4-70.6 62.8-176 140.7-189.1 81.3-13.6 132.3 83.6 215.2 58.4 44.4-13.5 41.8-45.1 84.9-52.9C712.3 280 795.2 394.8 802 404.3c10.1 14.4 39 58.1 50.8 125.5 19.5 111.6-12.1 263.4-85.3 284.9z" fill="#4399F7" p-id="2451"></path><path d="M774.8 800.1c-52.1 15.3-77.8-49.2-165.3-44.4-65.9 3.6-73.3 41.5-136.1 49.2-89.4 10.9-177.8-53.2-225-115.4-15-19.7-78.2-108.4-56.2-224.8 13.4-70.6 62.8-176 140.7-189.1 81.3-13.6 132.3 83.6 215.2 58.4 44.4-13.5 41.8-45.1 84.9-52.9 86.6-15.7 169.5 99.1 176.3 108.6 10.1 14.4 39 58.1 50.8 125.5 19.5 111.5-12.1 263.3-85.3 284.9z" fill="#2FADFC" p-id="2452"></path><path d="M603 297.1H443c-22.6 0-41 18.5-41 41.1v269.9c0 22.6 18.4 41.1 41 41.1h160c22.6 0 41-18.5 41-41.1V337.9c0-22.6-18.4-40.8-41-40.8z" fill="#313145" p-id="2453"></path><path d="M443.1 318h160c11 0 20.2 8.9 20.2 20.3v207.9H422.9V337.9c0-11 9.2-19.9 20.2-19.9zM603 628.4H443c-11 0-20.2-8.9-20.2-20.3V567h200.4v41.1c0 11-8.9 20.3-20.2 20.3z" fill="#FD595E" p-id="2454"></path><path d="M537.5 586.1h-28.8c-5.6 0-10.4 4.8-10.4 10.4 0 5.7 4.7 10.4 10.4 10.4h28.8c5.6 0 10.4-4.8 10.4-10.4-0.1-5.7-4.5-10.4-10.4-10.4z m-64.1-234.9c0 4 2.1 7.8 5.6 9.8 3.5 2 7.8 2 11.3 0 3.5-2 5.6-5.8 5.6-9.8 0-4-2.1-7.8-5.6-9.8-3.5-2-7.8-2-11.3 0-3.4 2-5.6 5.8-5.6 9.8z m39.5 0c0 4 2.1 7.8 5.6 9.8 3.5 2 7.8 2 11.3 0 3.5-2 5.6-5.8 5.6-9.8 0-4-2.2-7.8-5.6-9.8-3.5-2-7.8-2-11.3 0-3.4 2-5.6 5.8-5.6 9.8z m38.5 1c0 4 2.1 7.8 5.6 9.8 3.5 2 7.8 2 11.3 0 3.5-2 5.6-5.8 5.6-9.8s-2.1-7.8-5.6-9.8c-3.5-2-7.8-2-11.3 0-3.4 2-5.6 5.8-5.6 9.8z m0 0" fill="#8557DA" p-id="2455"></path><path d="M914.5 629.7s-155.8-77.4-300.3-83.5c-93.6-4-211.8 59.9-211.8 59.9s-163.5-8.6-236.6 44.8c0 0-12.6 9.4-12.2 24.8 0.4 15.5 4.9 45.6 8.5 57 0 0-6.6 0.3-8.5 9-1.9 8.7 46.5 14.1 72.5 10.9 0 0-7.3-28.2-3.2-48.1 4.1-19.8 19.2-63.5 76.3-64.3 52.8-0.8 78.5 50 72.8 107l347.1 2.4s-6-104 76-104c61.7 0 86.1 68.1 59.8 107.9l34.9-1.8s16.2-39.9 21.6-77.4l4.3-3.5 5.1-29.9c0.1 0 1.5-7.6-6.3-11.2z" fill="#FD595E" p-id="2456"></path><path d="M740.2 582.8l-167.4-20.6S504.5 574.9 457 611c0 0 201.8-9.1 217.2-9.5 15.4-0.4 55.4-5.3 55.4-5.3s8.6-3.4 10.6-13.4z" fill="#FFFFFF" p-id="2457"></path><path d="M671.2 573.5h0.1v29.9h-0.1z" fill="#FF3064" p-id="2458"></path><path d="M671.3 573.5h0.1v29.9h-0.1z" fill="#FF3164" p-id="2459"></path><path d="M671.4 573.5h0.1v29.9h-0.1z" fill="#FF3264" p-id="2460"></path><path d="M671.6 573.5h0.1v29.9h-0.1z" fill="#FF3364" p-id="2461"></path><path d="M671.7 573.5h0.1v29.9h-0.1z" fill="#FF3464" p-id="2462"></path><path d="M671.8 573.5h0.1v29.9h-0.1z" fill="#FF3564" p-id="2463"></path><path d="M671.9 573.5h0.1v29.9h-0.1z" fill="#FF3664" p-id="2464"></path><path d="M672.1 573.5h0.1v29.9h-0.1z" fill="#FF3764" p-id="2465"></path><path d="M672.2 573.5h0.1v29.9h-0.1z" fill="#FF3864" p-id="2466"></path><path d="M672.3 573.5h0.1v29.9h-0.1z" fill="#FF3964" p-id="2467"></path><path d="M672.4 573.5h0.1v29.9h-0.1z" fill="#FF3A64" p-id="2468"></path><path d="M672.6 573.5h0.1v29.9h-0.1z" fill="#FF3B64" p-id="2469"></path><path d="M672.7 573.5h0.1v29.9h-0.1z" fill="#FF3C64" p-id="2470"></path><path d="M672.8 573.5h0.1v29.9h-0.1z" fill="#FF3D64" p-id="2471"></path><path d="M672.9 573.5h0.1v29.9h-0.1z" fill="#FF3E64" p-id="2472"></path><path d="M673.1 573.5h0.1v29.9h-0.1z" fill="#FF3F64" p-id="2473"></path><path d="M673.2 573.5h0.1v29.9h-0.1z" fill="#FF4064" p-id="2474"></path><path d="M673.3 573.5h0.1v29.9h-0.1z" fill="#FF4164" p-id="2475"></path><path d="M673.4 573.5h0.1v29.9h-0.1z" fill="#FF4264" p-id="2476"></path><path d="M673.6 573.5h0.1v29.9h-0.1z" fill="#FF4364" p-id="2477"></path><path d="M673.7 573.5h0.1v29.9h-0.1z" fill="#FF4464" p-id="2478"></path><path d="M673.8 573.5h0.1v29.9h-0.1z" fill="#FF4564" p-id="2479"></path><path d="M673.9 573.5h0.1v29.9h-0.1z" fill="#FF4664" p-id="2480"></path><path d="M674.1 573.5h0.1v29.9h-0.1z" fill="#FF4764" p-id="2481"></path><path d="M674.2 573.5h0.1v29.9h-0.1z" fill="#FF4864" p-id="2482"></path><path d="M674.3 573.5h0.1v29.9h-0.1z" fill="#FF4964" p-id="2483"></path><path d="M674.4 573.5h0.1v29.9h-0.1z" fill="#FF4A64" p-id="2484"></path><path d="M674.6 573.5h0.1v29.9h-0.1z" fill="#FF4B64" p-id="2485"></path><path d="M674.7 573.5h0.1v29.9h-0.1z" fill="#FF4C64" p-id="2486"></path><path d="M674.8 573.5h0.1v29.9h-0.1z" fill="#FF4D64" p-id="2487"></path><path d="M674.9 573.5h0.1v29.9h-0.1z" fill="#FF4E64" p-id="2488"></path><path d="M675.1 573.5h0.1v29.9h-0.1z" fill="#FF4F64" p-id="2489"></path><path d="M675.2 573.5h0.1v29.9h-0.1z" fill="#FF5064" p-id="2490"></path><path d="M675.3 573.5h0.1v29.9h-0.1z" fill="#FF5164" p-id="2491"></path><path d="M675.4 573.5h0.1v29.9h-0.1z" fill="#FF5264" p-id="2492"></path><path d="M675.6 573.5h0.1v29.9h-0.1z" fill="#FF5364" p-id="2493"></path><path d="M675.7 573.5h0.1v29.9h-0.1z" fill="#FF5464" p-id="2494"></path><path d="M675.8 573.5h0.1v29.9h-0.1z" fill="#FF5564" p-id="2495"></path><path d="M675.9 573.5h0.1v29.9h-0.1z" fill="#FF5664" p-id="2496"></path><path d="M676.1 573.5h0.1v29.9h-0.1z" fill="#FF5764" p-id="2497"></path><path d="M676.2 573.5h0.1v29.9h-0.1z" fill="#FF5864" p-id="2498"></path><path d="M676.3 573.5h0.1v29.9h-0.1z" fill="#FF5964" p-id="2499"></path><path d="M676.4 573.5h0.1v29.9h-0.1z" fill="#FF5A64" p-id="2500"></path><path d="M676.6 573.5h0.1v29.9h-0.1z" fill="#FF5B64" p-id="2501"></path><path d="M676.7 573.5h0.1v29.9h-0.1z" fill="#FF5C64" p-id="2502"></path><path d="M676.8 573.5h0.1v29.9h-0.1z" fill="#FF5D64" p-id="2503"></path><path d="M676.9 573.5h0.1v29.9h-0.1z" fill="#FF5E64" p-id="2504"></path><path d="M677 573.5h0.1v29.9h-0.1z" fill="#FF5F64" p-id="2505"></path><path d="M677.2 573.5h0.1v29.9h-0.1z" fill="#FF6064" p-id="2506"></path><path d="M677.3 573.5h0.1v29.9h-0.1z" fill="#FF6164" p-id="2507"></path><path d="M677.4 573.5h0.1v29.9h-0.1z" fill="#FF6264" p-id="2508"></path><path d="M677.5 573.5h0.1v29.9h-0.1z" fill="#FF6364" p-id="2509"></path><path d="M677.7 573.5h0.1v29.9h-0.1z" fill="#FF6464" p-id="2510"></path><path d="M677.8 573.5h0.1v29.9h-0.1z" fill="#FF6564" p-id="2511"></path><path d="M677.9 573.5h0.1v29.9h-0.1z" fill="#FF6664" p-id="2512"></path><path d="M678 573.5h0.1v29.9h-0.1z" fill="#FF6764" p-id="2513"></path><path d="M678.2 573.5h0.1v29.9h-0.1z" fill="#FF6964" p-id="2514"></path><path d="M678.3 573.5h0.1v29.9h-0.1z" fill="#FF6A64" p-id="2515"></path><path d="M678.4 573.5h0.1v29.9h-0.1z" fill="#FF6B64" p-id="2516"></path><path d="M678.5 573.5h0.1v29.9h-0.1z" fill="#FF6C64" p-id="2517"></path><path d="M678.7 573.5h0.1v29.9h-0.1z" fill="#FF6D64" p-id="2518"></path><path d="M678.8 573.5h0.1v29.9h-0.1z" fill="#FF6E64" p-id="2519"></path><path d="M678.9 573.5h0.1v29.9h-0.1z" fill="#FF6F64" p-id="2520"></path><path d="M679 573.5h0.1v29.9h-0.1z" fill="#FF7064" p-id="2521"></path><path d="M679.2 573.5h0.1v29.9h-0.1z" fill="#FF7164" p-id="2522"></path><path d="M679.3 573.5h0.1v29.9h-0.1z" fill="#FF7264" p-id="2523"></path><path d="M679.4 573.5h0.1v29.9h-0.1z" fill="#FF7364" p-id="2524"></path><path d="M679.5 573.5h0.1v29.9h-0.1z" fill="#FF7464" p-id="2525"></path><path d="M679.7 573.5h0.1v29.9h-0.1z" fill="#FF7564" p-id="2526"></path><path d="M679.8 573.5h0.1v29.9h-0.1z" fill="#FF7664" p-id="2527"></path><path d="M679.9 573.5h0.1v29.9h-0.1z" fill="#FF7764" p-id="2528"></path><path d="M680 573.5h0.1v29.9h-0.1z" fill="#FF7864" p-id="2529"></path><path d="M680.2 573.5h0.1v29.9h-0.1z" fill="#FF7964" p-id="2530"></path><path d="M680.3 573.5h0.1v29.9h-0.1z" fill="#FF7A64" p-id="2531"></path><path d="M680.4 573.5h0.1v29.9h-0.1z" fill="#FF7B64" p-id="2532"></path><path d="M680.5 573.5h0.1v29.9h-0.1z" fill="#FF7C64" p-id="2533"></path><path d="M680.7 573.5h0.1v29.9h-0.1z" fill="#FF7D64" p-id="2534"></path><path d="M680.8 573.5h0.1v29.9h-0.1z" fill="#FF7E64" p-id="2535"></path><path d="M680.9 573.5h0.1v29.9h-0.1z" fill="#FF7F64" p-id="2536"></path><path d="M681 573.5h0.1v29.9h-0.1z" fill="#FF8064" p-id="2537"></path><path d="M681.2 573.5h0.1v29.9h-0.1z" fill="#FF8164" p-id="2538"></path><path d="M681.3 573.5h0.1v29.9h-0.1z" fill="#FF8264" p-id="2539"></path><path d="M681.4 573.5h0.1v29.9h-0.1z" fill="#FF8364" p-id="2540"></path><path d="M681.5 573.5h0.1v29.9h-0.1z" fill="#FF8464" p-id="2541"></path><path d="M681.7 573.5h0.1v29.9h-0.1z" fill="#FF8564" p-id="2542"></path><path d="M681.8 573.5h0.1v29.9h-0.1z" fill="#FF8664" p-id="2543"></path><path d="M681.9 573.5h0.1v29.9h-0.1z" fill="#FF8764" p-id="2544"></path><path d="M682 573.5h0.1v29.9h-0.1z" fill="#FF8864" p-id="2545"></path><path d="M682.2 573.5h0.1v29.9h-0.1z" fill="#FF8964" p-id="2546"></path><path d="M682.3 573.5h0.1v29.9h-0.1z" fill="#FF8A64" p-id="2547"></path><path d="M682.4 573.5h0.1v29.9h-0.1z" fill="#FF8B64" p-id="2548"></path><path d="M682.5 573.5h0.1v29.9h-0.1z" fill="#FF8C64" p-id="2549"></path><path d="M682.7 573.5h0.1v29.9h-0.1z" fill="#FF8D64" p-id="2550"></path><path d="M682.8 573.5h0.1v29.9h-0.1z" fill="#FF8E64" p-id="2551"></path><path d="M682.9 573.5h0.1v29.9h-0.1z" fill="#FF8F64" p-id="2552"></path><path d="M683 573.5h0.1v29.9h-0.1z" fill="#FF9064" p-id="2553"></path><path d="M683.2 573.5h0.1v29.9h-0.1z" fill="#FF9164" p-id="2554"></path><path d="M683.3 573.5h0.1v29.9h-0.1z" fill="#FF9264" p-id="2555"></path><path d="M683.4 573.5h0.1v29.9h-0.1z" fill="#FF9364" p-id="2556"></path><path d="M683.5 573.5h0.1v29.9h-0.1z" fill="#FF9464" p-id="2557"></path><path d="M683.6 573.5h0.1v29.9h-0.1z" fill="#FF9564" p-id="2558"></path><path d="M683.8 573.5h0.1v29.9h-0.1z" fill="#FF9664" p-id="2559"></path><path d="M683.9 573.5h0.1v29.9h-0.1z" fill="#FF9764" p-id="2560"></path><path d="M684 573.5h0.1v29.9h-0.1z" fill="#FF9864" p-id="2561"></path><path d="M684.1 573.5h0.1v29.9h-0.1z" fill="#FF9964" p-id="2562"></path><path d="M684.3 573.5h0.1v29.9h-0.1z" fill="#FF9A64" p-id="2563"></path><path d="M684.4 573.5h0.1v29.9h-0.1z" fill="#FF9B64" p-id="2564"></path><path d="M684.5 573.5h0.1v29.9h-0.1z" fill="#FF9C64" p-id="2565"></path><path d="M684.6 573.5h0.1v29.9h-0.1z" fill="#FF9D64" p-id="2566"></path><path d="M684.8 573.5h0.1v29.9h-0.1z" fill="#FF9E64" p-id="2567"></path><path d="M684.9 573.5h0.1v29.9h-0.1z" fill="#FF9F64" p-id="2568"></path><path d="M685 573.5h0.1v29.9h-0.1z" fill="#FFA064" p-id="2569"></path><path d="M685.1 573.5h0.1v29.9h-0.1z" fill="#FFA164" p-id="2570"></path><path d="M494.4 610.8l9.6-8.1 0.7-8.7s5.3-6.2 10-8c0 0 13.9-2.3 17.4-2.6 3.5-0.3 7.8 1.5 8.3 4.6 0.5 3.1 0.7 11.3 0.7 11.3s-8.4 7.5-15.2 9.1c-6.8 1.6-11 1.8-11.5 2.4-0.5 0.7-20 0-20 0z" fill="#8557DA" p-id="2571"></path><path d="M880 621.7s18.1 4.1 26.4 6.9c8.3 2.8 11.8 15.7 4.3 26.5 0 0-1.4 2-4.9 0-3.5-2-23.5-26.9-25.8-30.3 0 0-1.7-3.5 0-3.1z" fill="#FCA360" p-id="2572"></path><path d="M368.8 632s-18.7-1.4-19.7 4.3c-1.1 5.7 48.5 77.6 63.8 89.3 17 13 41.7 10 52.8 10 11.1 0 99.6-3.8 99.6-3.8L451 733.5s-21.6-0.3-34.1-9.5c-12.4-9.2-54.9-72.5-60.9-86.1 0 0-1-5.1 12.8-5.9z" fill="#FFFFFF" p-id="2573"></path><path d="M353.2 640l111.6-2.6s1.6 1.1 0.7 3.1l-109.8 4.1-2.5-4.6z" fill="#FFFFFF" p-id="2574"></path><path d="M225.3 635.8s-35.3 7.8-60.1 23.4c-24.8 15.6 41.3 5.4 60.1-23.4z" fill="#FCA360" p-id="2575"></path><path d="M536.6 555.6s14.7 4.4 30.8 4.6c0 0-80 19.5-117.3 50.9 0 0-30 2.9-45.2-4.4 0 0 58.1-32.9 131.7-51.1z" fill="#FFFFFF" p-id="2576"></path><path d="M298 716.5c-5 0-9.1-4.1-9.1-9.1s4.1-9.1 9.1-9.1 9.1 4.1 9.1 9.1c-0.1 5-4.1 9.1-9.1 9.1z m0-15.8a6.7 6.7 0 1 0 6.7 6.7c-0.1-3.7-3.1-6.7-6.7-6.7z" fill="#1B8CBD" p-id="2577"></path><path d="M365.3 710.5c0 37.5-30.3 67.8-67.6 67.8s-67.6-30.4-67.6-67.8 30.3-67.8 67.6-67.8 67.6 30.4 67.6 67.8z" fill="#313145" p-id="2578"></path><path d="M299 704.2l4.9-29.9-13.2-16.4h13.2l4 14-6.9 33.4z" fill="#FFFFFF" p-id="2579"></path><path d="M302.6 705.3l14.4-26.6 20.4-4.8-10.3-8.1-11.8 8.5-15 30.6z m2.1 4l29.8-4.9 11.3-17.8 4.2 12.5-11.9 8.3-33.8 4.1z" fill="#FFFFFF" p-id="2580"></path><path d="M304.8 713l29.7 5.3 11.1 17.8 4.4-12.4-11.8-8.5-33.7-4.5z m-1.8 2.5l13.1 27.3 20.2 5.9-10.8 7.5-11.3-9.1-13.5-31.3z" fill="#FFFFFF" p-id="2581"></path><path d="M299.5 716.7l3.3 30-13.9 15.8 13.1 0.6 4.8-13.7-5.2-33.7z m-7.3-8.4l-26.8-13.9-19.6 7.5 4.1-12.6 14.5 0.5 29.5 16.9z" fill="#FFFFFF" p-id="2582"></path><path d="M294.3 705.3l-20.6-22 1.7-21-10.9 7.3 4.4 13.9 24.4 23.8z m0 11.1l-21.8 20.9 0.7 21.1-10.5-7.9 5.1-13.7 25.5-22.5z" fill="#FFFFFF" p-id="2583"></path><path d="M292.1 713.3l-27.5 12.6-19.2-8.4 3.4 12.7 14.6 0.3 30.2-15.5zM296.8 697.9c0 1.2-1 2.2-2.2 2.2s-2.2-1-2.2-2.2 1-2.2 2.2-2.2 2.2 0.9 2.2 2.2zM311.2 703.2c0 1.2-1 2.2-2.2 2.2-1.2 0-2.2-1-2.2-2.2s1-2.2 2.2-2.2c1.2 0 2.2 1 2.2 2.2zM311.2 718c0 1.2-1 2.2-2.2 2.2-1.2 0-2.2-1-2.2-2.2 0-1.2 1-2.2 2.2-2.2 1.2 0 2.2 1 2.2 2.2zM297.2 722.4c0 1.2-1 2.2-2.2 2.2-1.2 0-2.2-1-2.2-2.2 0-1.2 1-2.2 2.2-2.2 1.2 0 2.2 1 2.2 2.2zM288 710.7c0 1.2-1 2.2-2.2 2.2-1.2 0-2.2-1-2.2-2.2 0-1.2 1-2.2 2.2-2.2 1.2 0 2.2 1 2.2 2.2z" fill="#FFFFFF" p-id="2584"></path><path d="M862.5 715.8c0 37.4-30.3 67.8-67.6 67.8s-67.6-30.4-67.6-67.8 30.2-67.8 67.6-67.8c37.3 0 67.6 30.4 67.6 67.8z" fill="#313145" p-id="2585"></path><path d="M796.2 709.5l4.9-29.9-13.1-16.4h13.1l4 14-6.9 33.4z" fill="#FFFFFF" p-id="2586"></path><path d="M799.8 710.6l14.4-26.6 20.4-4.9-10.3-8.1-11.8 8.6-15 30.6z m2.1 3.9l29.8-4.9 11.3-17.7 4.2 12.5-11.9 8.3-33.7 4.1z" fill="#FFFFFF" p-id="2587"></path><path d="M802.1 718.3l29.7 5.2 11.1 17.9 4.3-12.5-11.8-8.4-33.7-4.5z m-1.8 2.5l13 27.2 20.2 5.9-10.8 7.6-11.3-9.1L798 721z" fill="#FFFFFF" p-id="2588"></path><path d="M796.7 721.9l3.4 30.1-14 15.8 13.1 0.6 4.8-13.7-5.2-33.7z m-7.3-8.3l-26.7-13.9-19.7 7.4 4.1-12.5 14.5 0.5 29.5 16.9z" fill="#FFFFFF" p-id="2589"></path><path d="M791.6 710.5l-20.7-22 1.7-21-10.9 7.4 4.5 13.9 24.3 23.8z m-0.1 11.1l-21.7 21 0.7 21-10.5-7.9 5.1-13.6 25.4-22.6z" fill="#FFFFFF" p-id="2590"></path><path d="M789.3 718.6l-27.4 12.6-19.3-8.4 3.5 12.7 14.5 0.3 30.3-15.5zM794.1 703.1c0 1.2-1 2.2-2.2 2.2-1.2 0-2.2-1-2.2-2.2s1-2.2 2.2-2.2c1.2 0 2.2 1 2.2 2.2zM808.5 708.5c0 1.2-1 2.2-2.2 2.2-1.2 0-2.2-1-2.2-2.2 0-1.2 1-2.2 2.2-2.2 1.2 0 2.2 1 2.2 2.2zM808.5 723.3c0 1.2-1 2.2-2.2 2.2-1.2 0-2.2-1-2.2-2.2 0-1.2 1-2.2 2.2-2.2 1.2 0 2.2 1 2.2 2.2zM794.4 727.7c0 1.2-1 2.2-2.2 2.2-1.2 0-2.2-1-2.2-2.2 0-1.2 1-2.2 2.2-2.2 1.2 0 2.2 1 2.2 2.2zM785.2 716c0 1.2-1 2.2-2.2 2.2-1.2 0-2.2-1-2.2-2.2 0-1.2 1-2.2 2.2-2.2 1.2 0 2.2 1 2.2 2.2z" fill="#FFFFFF" p-id="2591"></path><path d="M331.7 426.5h0.1v16.8h-0.1z" fill="#FF3064" p-id="2592"></path><path d="M331.7 426.5h2.9v16.8h-2.9z" fill="#FF3064" p-id="2593"></path><path d="M334.7 426.5h2.9v16.8h-2.9z" fill="#FF3164" p-id="2594"></path><path d="M628.2 526.5c-0.3 0-0.7-0.1-1-0.2-8-3.1-15.1-6.7-21.1-10.7-1.3-0.9-1.6-2.6-0.8-3.9 0.9-1.3 2.6-1.6 3.9-0.8 5.7 3.8 12.5 7.2 20 10.2 1.4 0.6 2.2 2.2 1.6 3.6-0.5 1.2-1.5 1.8-2.6 1.8z m-37.3-26.2c-0.9 0-1.7-0.4-2.3-1.2-4.2-5.9-6.8-12.5-7.9-19.4-0.2-1.1-0.3-2.2-0.4-3.3-0.2-1.5 0.9-2.9 2.5-3.1 1.5-0.2 2.9 0.9 3.1 2.5 0.1 1 0.3 2 0.4 3 1 6.1 3.3 11.9 7 17.1 0.9 1.3 0.6 3-0.7 3.9-0.6 0.4-1.2 0.5-1.7 0.5z m-6.9-44.4c-0.2 0-0.4 0-0.6-0.1-1.5-0.3-2.5-1.8-2.2-3.3 1.5-7.4 4-14.7 7.7-22.4 0.7-1.4 2.3-2 3.7-1.3 1.4 0.7 2 2.3 1.3 3.7-3.5 7.3-5.9 14.2-7.3 21.1-0.1 1.4-1.3 2.3-2.6 2.3z m19.2-41.6c-0.5 0-1.1-0.2-1.6-0.5-1.3-0.9-1.6-2.6-0.8-3.9 3.5-5.3 7.3-10.4 10.9-15.3l2.6-3.6c0.9-1.3 2.7-1.5 3.9-0.6 1.2 0.9 1.5 2.7 0.6 3.9l-2.6 3.6c-3.6 4.9-7.3 10-10.7 15.1-0.5 0.8-1.4 1.3-2.3 1.3zM338 409.4c-0.2 0-0.4 0-0.6-0.1-1.5-0.3-2.4-1.8-2.1-3.3 1.7-7.4 4-14.9 6.9-22.4 0.6-1.4 2.2-2.2 3.6-1.6 1.4 0.6 2.2 2.2 1.6 3.6-2.8 7.2-5.1 14.5-6.7 21.7-0.3 1.2-1.5 2.1-2.7 2.1z m291.5-33.1c-0.5 0-1-0.1-1.4-0.4-1.3-0.8-1.8-2.5-1-3.8 4.4-7.5 7.1-14.2 8.3-20.4 0.3-1.5 1.8-2.5 3.3-2.2 1.5 0.3 2.5 1.8 2.2 3.3-1.3 6.8-4.3 14.1-9 22.2-0.5 0.8-1.5 1.3-2.4 1.3z m-275.1-10c-0.4 0-0.9-0.1-1.3-0.3a2.7 2.7 0 0 1-1.1-3.8c3.6-6.8 7.7-13.5 12.2-20 0.9-1.3 2.6-1.6 3.9-0.7 1.3 0.9 1.6 2.6 0.7 3.9-4.3 6.3-8.3 12.8-11.9 19.4-0.5 1-1.5 1.5-2.5 1.5z m281.7-34c-1.1 0-2.2-0.7-2.6-1.8-2.3-6-6.4-12.2-12-18.4-1-1.1-1-2.9 0.2-3.9 1.1-1 2.9-1 3.9 0.2 6.2 6.8 10.4 13.3 13.1 20.1 0.6 1.4-0.2 3.1-1.6 3.6-0.3 0.1-0.7 0.2-1 0.2z m-255.5-4c-0.6 0-1.3-0.2-1.8-0.7-1.2-1-1.3-2.8-0.3-3.9 5.1-5.9 10.5-11.6 16.2-16.9 1.1-1.1 2.9-1 4 0.1s1 2.9-0.1 4c-5.5 5.2-10.8 10.7-15.8 16.4-0.7 0.7-1.4 1-2.2 1z m225.8-30.7c-0.6 0-1.2-0.2-1.7-0.6-2.2-1.7-4.5-3.4-7-5.1-3.9-2.7-7.9-5.3-11.8-7.7-1.3-0.8-1.8-2.5-1-3.8 0.8-1.3 2.5-1.8 3.8-1 4.1 2.4 8.2 5.1 12.2 7.9 2.5 1.8 4.9 3.5 7.2 5.3 1.2 0.9 1.5 2.7 0.5 3.9-0.5 0.7-1.3 1.1-2.2 1.1z m-192.1-0.7c-0.9 0-1.7-0.4-2.2-1.1-0.9-1.2-0.7-3 0.6-3.9 6.3-4.7 12.9-9 19.6-12.8 1.3-0.8 3-0.3 3.8 1s0.3 3-1 3.8c-6.5 3.7-12.9 7.9-19 12.5-0.6 0.3-1.2 0.5-1.8 0.5z m152.5-22.7c-0.4 0-0.7-0.1-1.1-0.2-7-3-14.3-5.4-21.5-7.2-1.5-0.4-2.4-1.9-2-3.4s1.9-2.4 3.4-2c7.5 1.9 15 4.4 22.3 7.4 1.4 0.6 2.1 2.2 1.5 3.7-0.5 1-1.5 1.7-2.6 1.7z m-112.4-0.1c-1.1 0-2.1-0.7-2.6-1.7-0.6-1.4 0.1-3.1 1.5-3.6 7.3-3 14.9-5.4 22.3-7.3 1.5-0.4 3 0.5 3.4 2 0.4 1.5-0.5 3-2 3.4-7.2 1.8-14.5 4.1-21.5 7-0.4 0.1-0.8 0.2-1.1 0.2z m44.6-10.9c-1.4 0-2.7-1.1-2.8-2.6-0.1-1.5 1-2.9 2.5-3 7.8-0.7 15.7-0.7 23.5-0.1 1.5 0.1 2.7 1.5 2.6 3-0.1 1.5-1.5 2.7-3 2.6-7.5-0.6-15.1-0.6-22.6 0.1h-0.2z" fill="#FD595E" p-id="2595"></path><path d="M647.4 527.4h2.1v7.9h-2.1z" fill="#FF9C64" p-id="2596"></path><path d="M649.5 527.4h2.9v7.9h-2.9z" fill="#FF9D64" p-id="2597"></path><path d="M652.4 527.4h2.9v7.9h-2.9z" fill="#FF9E64" p-id="2598"></path><path d="M655.4 527.4h2.9v7.9h-2.9z" fill="#FF9F64" p-id="2599"></path><path d="M658.3 527.4h2.9v7.9h-2.9z" fill="#FFA064" p-id="2600"></path><path d="M661.3 527.4h2.9v7.9h-2.9z m2.9 0h0.2v7.9h-0.2z" fill="#FFA164" p-id="2601"></path><path d="M346.9 440.6l-6 20c-0.5 1.7-2.6 2.2-3.8 0.9l-14.3-15.1a2.2 2.2 0 0 1 1.1-3.7l20.3-4.8c1.7-0.6 3.2 1 2.7 2.7z" fill="#FD595E" p-id="2602"></path><path d="M425.3 804.3c-4 7.7-13.6 10.6-21.2 6.6-7.7-4-10.6-13.6-6.6-21.2a15.7 15.7 0 1 1 27.8 14.6z m-20.2-10.7c-1.8 3.5-0.5 7.8 3 9.7 3.5 1.8 7.8 0.5 9.7-3 1.8-3.5 0.5-7.8-3-9.7-3.5-1.8-7.9-0.5-9.7 3z" fill="#FFFFFF" p-id="2603"></path><path d="M794.5 476.6c5.7 6.5 5.1 16.4-1.4 22.2-6.5 5.7-16.4 5.1-22.2-1.4s-5.1-16.4 1.4-22.2a15.7 15.7 0 0 1 22.2 1.4z m-17.2 15.1c2.6 3 7.1 3.3 10.1 0.7 3-2.6 3.3-7.1 0.7-10.1-2.6-3-7.1-3.3-10.1-0.7-3 2.6-3.3 7.1-0.7 10.1z" fill="#FFFFFF" p-id="2604"></path><path d="M308.5 365.6c5.7 6.5 5.1 16.4-1.4 22.2-6.5 5.7-16.4 5.1-22.2-1.4-5.7-6.5-5.1-16.4 1.4-22.2a15.7 15.7 0 0 1 22.2 1.4z m-17.2 15.1c2.6 3 7.1 3.3 10.1 0.7 3-2.6 3.3-7.1 0.7-10.1-2.6-3-7.1-3.3-10.1-0.7-3 2.6-3.3 7.1-0.7 10.1z" fill="#FFFFFF" p-id="2605"></path><path d="M254.9 542c0.9 1.1 0.8 2.7-0.2 3.6l-12.1 10.6c-1.1 0.9-2.7 0.8-3.6-0.2-0.9-1.1-0.8-2.7 0.2-3.6l12.1-10.6c1.1-1 2.7-0.9 3.6 0.2zM285.7 515c0.9 1.1 0.8 2.7-0.2 3.6l-12.1 10.6c-1.1 0.9-2.7 0.8-3.6-0.2-0.9-1.1-0.8-2.7 0.2-3.6l12.1-10.6c1-1 2.6-0.9 3.6 0.2z" fill="#FFFFFF" p-id="2606"></path><path d="M245.4 512.3l10.6 12.1c0.9 1.1 0.8 2.7-0.2 3.6-1.1 0.9-2.7 0.8-3.6-0.2l-10.6-12.1c-0.9-1.1-0.8-2.7 0.2-3.6s2.7-0.8 3.6 0.2zM272.4 543.1l10.6 12.1c0.9 1.1 0.8 2.7-0.2 3.6-1.1 0.9-2.7 0.8-3.6-0.2l-10.6-12.1c-0.9-1.1-0.8-2.7 0.2-3.6 1.1-1 2.7-0.8 3.6 0.2z" fill="#FFFFFF" p-id="2607"></path><path d="M721.4 382.2c0.7 0.8 0.6 2.1-0.2 2.8l-9.5 8.3c-0.8 0.7-2.1 0.6-2.8-0.2-0.7-0.8-0.6-2.1 0.2-2.8l9.5-8.3c0.9-0.7 2.1-0.6 2.8 0.2zM745.5 361.1c0.7 0.8 0.6 2.1-0.2 2.8l-9.5 8.3c-0.8 0.7-2.1 0.6-2.8-0.2-0.7-0.8-0.6-2.1 0.2-2.8l9.5-8.3c0.8-0.7 2.1-0.6 2.8 0.2z" fill="#FFFFFF" p-id="2608"></path><path d="M714 359l8.3 9.5c0.7 0.8 0.6 2.1-0.2 2.8-0.8 0.7-2.1 0.6-2.8-0.2l-8.3-9.5c-0.7-0.8-0.6-2.1 0.2-2.8 0.8-0.7 2.1-0.6 2.8 0.2zM735.1 383.1l8.3 9.5c0.7 0.8 0.6 2.1-0.2 2.8s-2.1 0.6-2.8-0.2l-8.3-9.5c-0.7-0.8-0.6-2.1 0.2-2.8s2.1-0.6 2.8 0.2z" fill="#FFFFFF" p-id="2609"></path></svg>