<?xml version="1.0" standalone="no"?><!DOCTYPE svg PUBLIC "-//W3C//DTD SVG 1.1//EN" "http://www.w3.org/Graphics/SVG/1.1/DTD/svg11.dtd"><svg t="1622168991838" class="icon" viewBox="0 0 1024 1024" version="1.1" xmlns="http://www.w3.org/2000/svg" p-id="3810" xmlns:xlink="http://www.w3.org/1999/xlink" width="200" height="200"><defs><style type="text/css"></style></defs><path d="M512.149985 512.049995m-511.950005 0a511.950005 511.950005 0 1 0 1023.90001 0 511.950005 511.950005 0 1 0-1023.90001 0Z" fill="#FDB039" p-id="3811"></path><path d="M681.233473 198.580607l-11.698857 14.998536-31.496924 6.799336-34.196661 0.999902 72.792891 52.594864 3.499659 26.297432 343.566448 189.481496c-2.599746-61.394004-15.998438-119.988282-38.39625-173.88302L680.133581 143.385997l1.099892 55.19461zM1024.09999 512.049995c0-2.699736 0-5.399473-0.09999-7.999219l-475.95352-263.37428-1.499854 131.987111-22.497803 82.091983-118.488429 72.992872-58.494287 24.897569-83.991798 109.489307-24.797578 100.290206 401.260814 245.676009c221.07841-56.794454 384.562445-257.374866 384.562445-496.051558z" fill="#ED9E37" p-id="3812"></path><path d="M781.023728 492.251929c0-30.197051-24.497608-54.694659-54.694659-54.694659H588.742506c11.998828-37.996289 32.696807-124.687823-20.597989-182.48218-35.796504-38.696221-69.293233 5.199492-69.293233 5.199493s36.496436 156.384728-116.188653 225.57797V744.927253H671.934381c30.197051 0 54.694659-24.497608 54.694659-54.694659v-4.59955c17.298311-9.199102 29.097158-27.397324 29.097159-48.395274v-5.099502c0-5.999414-0.999902-11.698858-2.699737-16.99834 12.998731-9.999024 21.39791-25.69749 21.397911-43.395762v-5.099502c0-11.298897-3.499658-21.897862-9.399083-30.597012 9.899033-9.899033 16.098428-23.597696 16.098428-38.696221l-0.09999-5.099502z" fill="#FFFFFF" p-id="3813"></path><path d="M379.562933 764.62533H246.47593c-7.599258 0-13.798652-7.399277-13.798652-16.59838V471.253979c0-9.099111 6.199395-16.598379 13.798652-16.598379h133.186994c7.599258 0 13.798652 7.399277 13.798652 16.598379v276.772971c-0.09999 9.099111-6.299385 16.598379-13.898643 16.59838z" fill="#4197E5" p-id="3814"></path><path d="M781.023728 492.251929c0-30.197051-24.497608-54.694659-54.694659-54.694659H672.934284c0.799922 8.899131 1.299873 17.998242 1.299873 27.197344 0 134.286886-91.191095 247.275852-214.979006 280.272629H671.934381c30.197051 0 54.694659-24.497608 54.694659-54.694658v-4.599551c17.298311-9.199102 29.097158-27.397324 29.097159-48.395274v-5.099502c0-5.999414-0.999902-11.698858-2.699737-16.99834 12.998731-9.999024 21.39791-25.69749 21.397911-43.395762v-5.099502c0-11.298897-3.499658-21.897862-9.399083-30.597012 9.899033-9.899033 16.098428-23.597696 16.098428-38.696221l-0.09999-5.199492z" fill="#EAEAEA" p-id="3815"></path><path d="M684.13319 148.485499c-2.299775-6.799336-6.099404-6.799336-8.39918 0l-12.89874 38.09628c-2.299775 6.799336-9.699053 14.198613-16.498389 16.498389L608.440582 215.978908c-6.799336 2.299775-6.799336 6.099404 0 8.39918l37.596328 13.098721c6.799336 2.299775 14.098623 9.799043 16.498389 16.498389l13.098721 38.19627c2.299775 6.799336 6.099404 6.799336 8.39918 0l12.79875-37.99629c2.299775-6.799336 9.599063-14.198613 16.398399-16.498389l38.49624-13.198711c6.799336-2.299775 6.799336-5.999414 0-8.399179L713.93028 203.380139c-6.799336-2.299775-14.198613-9.599063-16.498389-16.398399l-13.298701-38.496241z" fill="#FFFFFF" p-id="3816"></path></svg>