<?xml version="1.0" standalone="no"?><!DOCTYPE svg PUBLIC "-//W3C//DTD SVG 1.1//EN" "http://www.w3.org/Graphics/SVG/1.1/DTD/svg11.dtd"><svg t="1622169135880" class="icon" viewBox="0 0 1024 1024" version="1.1" xmlns="http://www.w3.org/2000/svg" p-id="6865" xmlns:xlink="http://www.w3.org/1999/xlink" width="200" height="200"><defs><style type="text/css"></style></defs><path d="M240.128 358.912L115.712 487.936c-0.512 0.512 0 1.536 0.512 1.536h184.832L241.664 359.424c0-0.512-1.024-0.512-1.536-0.512z" fill="#FF52A1" p-id="6866"></path><path d="M330.752 508.416H116.736c-8.192 0-15.36-4.608-18.432-12.288-3.072-7.168-1.536-15.872 4.096-21.504l124.416-129.024c4.608-4.608 11.264-6.656 17.408-5.632 6.656 1.024 11.776 5.12 14.848 11.264l71.68 157.184z m-171.52-37.888h112.64L235.52 391.68 159.232 470.528z" fill="#6147B2" p-id="6867"></path><path d="M745.984 358.4H246.272c-1.024 0-1.024 1.024-0.512 1.536l249.856 129.536h0.512l250.368-129.536c0.512-0.512 0-1.536-0.512-1.536z" fill="#FFB87D" p-id="6868"></path><path d="M495.616 508.416c-3.072 0-6.144-0.512-8.704-2.048L237.056 376.832c-8.192-4.096-12.288-13.312-10.24-22.016 2.048-8.704 10.24-14.848 18.944-14.848h499.712c9.216 0 16.896 6.144 18.944 14.848 2.048 8.704-2.048 17.92-10.24 22.016L504.832 506.368c-3.072 1.536-6.144 2.048-9.216 2.048zM320.512 377.344l175.104 91.136 175.616-91.136H320.512z" fill="#6147B2" p-id="6869"></path><path d="M876.544 488.96L752.64 359.936c-0.512-1.024-2.048-0.512-2.56 0.512l-59.392 129.536h185.856s0.512-1.024 0-1.024z" fill="#FF52A1" p-id="6870"></path><path d="M876.032 508.928h-215.04l71.68-156.16c3.072-6.144 8.704-10.752 15.36-11.776 6.656-1.024 13.312 1.024 17.92 6.144l133.12 137.728-4.608 12.288-5.12 11.776h-13.312z m-156.16-38.4h113.152l-76.8-79.36-36.352 79.36z" fill="#6147B2" p-id="6871"></path><path d="M115.712 491.52l374.784 416.768c1.024 1.024 2.56 0 2.048-1.536L301.568 489.984H116.224c-0.512 0-1.024 0.512-0.512 1.536z" fill="#6ED7FF" p-id="6872"></path><path d="M491.52 927.232c-5.632 0-10.752-2.048-14.848-6.656L101.376 503.808c-5.12-5.632-6.656-14.336-3.072-21.504 3.072-7.168 10.24-11.776 17.92-11.776h197.12l196.096 428.032c4.096 9.216 1.024 19.456-7.168 25.088-3.072 2.56-7.168 3.584-10.752 3.584zM157.184 508.928L427.008 808.96 289.28 508.928H157.184z" fill="#6147B2" p-id="6873"></path><path d="M114.176 489.984h187.392v-0.512H114.176" fill="#FFB87D" p-id="6874"></path><path d="M301.568 508.928H114.176c-10.24 0-18.944-8.704-18.944-18.944v-1.024c0.512-10.24 8.704-17.92 18.944-17.92h199.168l16.896 37.888h-28.672z" fill="#6147B2" p-id="6875"></path><path d="M870.912 489.984h-180.736L496.64 911.872c0 0.512 0.512 0.512 0.512 0.512l375.808-417.792c1.536-2.048 0.512-4.608-2.048-4.608z" fill="#6ED7FF" p-id="6876"></path><path d="M500.224 936.96l-27.648-17.92 6.656-15.36L678.4 471.04h193.024c8.704 0 16.384 5.12 19.968 12.8 3.584 7.68 2.048 16.896-3.584 23.04l-387.584 430.08z m202.24-428.032l-137.728 299.52L834.56 508.928h-132.096z" fill="#6147B2" p-id="6877"></path><path d="M690.688 489.472v0.512" fill="#FFB87D" p-id="6878"></path><path d="M690.688 508.928c-2.56 0-5.632-0.512-8.192-2.048-9.216-4.608-13.312-15.872-9.216-25.088 4.608-9.216 15.872-13.312 25.088-9.216 9.216 4.608 13.312 15.872 9.216 25.088-3.072 7.168-10.24 11.264-16.896 11.264z" fill="#6147B2" p-id="6879"></path><path d="M493.568 488.448l-250.88-129.536c-0.512-0.512-1.024 0.512-1.024 1.024l59.392 129.536 0.512 0.512h191.488c1.024-0.512 1.024-1.024 0.512-1.536z" fill="#FF52A1" p-id="6880"></path><path d="M493.056 508.416H289.792l-5.632-11.264-65.024-141.824 9.728-10.24c6.144-5.632 15.36-7.168 22.528-3.072l250.88 129.536c8.192 4.096 12.288 13.312 10.24 22.016-2.56 8.704-10.24 14.848-19.456 14.848z m-179.712-37.888h103.936L281.088 400.384l32.256 70.144z" fill="#6147B2" p-id="6881"></path><path d="M495.616 489.984h194.048c0.512 0 0.512 0 1.024-0.512l58.88-128c0.512-1.024-0.512-1.536-1.536-1.536L495.616 489.984z" fill="#FF52A1" p-id="6882"></path><path d="M495.616 508.928h-18.944V471.04h14.336l248.32-128c7.68-4.096 16.896-2.56 23.04 3.072 6.144 5.632 7.68 14.848 4.096 22.528l-58.88 128c-3.072 7.168-10.24 11.776-17.92 11.776l-194.048 0.512z m78.336-38.4h104.448l32.256-70.656-136.704 70.656z" fill="#6147B2" p-id="6883"></path><path d="M301.568 489.984l192 418.816c0.512 1.024 2.048 1.024 2.048-0.512V489.984H301.568z" fill="#FFB87D" p-id="6884"></path><path d="M494.592 928.256c-7.68 0-14.848-4.608-18.432-11.776L271.872 471.04h242.688v437.248c0 9.728-6.656 17.408-15.872 19.456-1.536 0.512-2.56 0.512-4.096 0.512z m-163.84-419.328l145.92 317.952V508.928H330.752z" fill="#6147B2" p-id="6885"></path><path d="M301.568 489.472v0.512h194.048v-0.512z" fill="#FFB87D" p-id="6886"></path><path d="M495.616 508.928H289.28L272.384 471.04l29.184-0.512h212.992v37.888z" fill="#6147B2" p-id="6887"></path><path d="M495.616 489.984v418.304c0 1.536 1.536 1.536 2.048 0.512l192.512-418.816h-194.56z" fill="#FFB87D" p-id="6888"></path><path d="M497.152 928.256c-1.536 0-3.072 0-4.608-0.512-9.216-2.048-15.872-10.24-15.872-19.456V471.04h243.2l-204.8 445.952c-3.072 6.656-10.24 11.264-17.92 11.264z m17.408-419.328v318.464L660.48 508.928h-145.92z" fill="#6147B2" p-id="6889"></path><path d="M495.616 489.472v0.512h195.072v-0.512z" fill="#FFB87D" p-id="6890"></path><path d="M690.688 508.928H476.672V471.04l18.944-0.512h224.768l-17.92 37.888z" fill="#6147B2" p-id="6891"></path><path d="M496.128 256.512c-10.24 0-18.944-8.704-18.944-18.944V105.984c0-10.24 8.704-18.944 18.944-18.944s18.944 8.704 18.944 18.944v131.584c0 10.24-8.704 18.944-18.944 18.944zM325.12 274.432c-6.144 0-11.776-2.56-15.36-7.68L237.056 164.864c-6.144-8.704-4.096-20.48 4.608-26.624 8.704-6.144 20.48-4.096 26.624 4.608l72.704 101.888c6.144 8.704 4.096 20.48-4.608 26.624-3.584 2.048-7.168 3.072-11.264 3.072zM668.672 268.288c-3.072 0-6.656-1.024-9.216-2.56-9.216-5.12-12.288-16.896-7.168-26.112L716.8 126.464c5.12-9.216 16.896-12.288 25.6-7.168 9.216 5.12 12.288 16.896 7.168 26.112l-65.024 113.152c-3.072 6.144-9.728 9.728-15.872 9.728zM172.544 337.408c-3.584 0-7.68-1.024-10.752-3.584l-102.4-71.68c-8.704-6.144-10.752-17.92-4.608-26.624 6.144-8.704 17.92-10.752 26.624-4.608l102.4 71.68c8.704 6.144 10.752 17.92 4.608 26.624-4.096 5.632-9.728 8.192-15.872 8.192zM846.336 337.408c-6.144 0-11.776-3.072-15.872-8.192-6.144-8.704-3.584-20.48 5.12-26.112l107.52-74.24c8.704-6.144 20.48-3.584 26.112 5.12 6.144 8.704 3.584 20.48-5.12 26.112l-107.52 74.24c-3.072 2.048-6.656 3.072-10.24 3.072z" fill="#6147B2" p-id="6892"></path></svg>