<?xml version="1.0" standalone="no"?><!DOCTYPE svg PUBLIC "-//W3C//DTD SVG 1.1//EN" "http://www.w3.org/Graphics/SVG/1.1/DTD/svg11.dtd"><svg t="1622165816858" class="icon" viewBox="0 0 1024 1024" version="1.1" xmlns="http://www.w3.org/2000/svg" p-id="8529" xmlns:xlink="http://www.w3.org/1999/xlink" width="200" height="200"><defs><style type="text/css"></style></defs><path d="M808.9 738.1v250.3c0 5.4-3.6 10.2-8.8 11.7-1.1 0.3-2.2 0.5-3.4 0.5-4.1 0-8.1-2.1-10.3-5.7L681.6 828.1h2.9c3.6 0 6.8-1.5 9-4l32.6 52 70.5 112.3V738.1c0-43.5-18.4-85-50.7-114.1l-19.8-17.8-29.4-26.6v-11-5.4l57.4 51.8c34.8 31.3 54.8 76.2 54.8 123.1z" fill="#8A278E" p-id="8530"></path><path d="M796.7 738.1v250.3l-70.5-112.3v-22.9l58.4 93v-208c0-40-17-78.3-46.7-105l-11.7-10.5v-16.4L746 624c32.3 29.1 50.7 70.6 50.7 114.1z" fill="#8A278E" p-id="8531"></path><path d="M784.5 738.1v208l-58.4-93V622.5l11.7 10.5c29.7 26.8 46.7 65.1 46.7 105.1z" fill="#F8A882" p-id="8532"></path><path d="M696.7 579.6l29.5 26.5v16.4L696.7 596zM726.2 853.2V876l-32.6-52c2-2.2 3.2-5 3.2-8.2v-9.6l29.4 47z" fill="#8A278E" p-id="8533"></path><path d="M726.2 622.5v230.7l-29.5-46.9V596z" fill="#E19175" p-id="8534"></path><path d="M696.7 806.3v9.6c0 3.1-1.2 6-3.2 8.2l-9-14.3V568.6l12.2 11V806.3z" fill="#8A278E" p-id="8535"></path><path d="M696.7 568.6v11l-12.2-11c0-4.1 0-8.1-0.1-12.2 3 0 5.9 1 8.2 3.1l4 3.6c0.1 1.9 0.1 3.7 0.1 5.5z" fill="#8A278E" p-id="8536"></path><path d="M696.7 563.2l-4-3.6c-2.3-2.1-5.2-3.1-8.2-3.1-1.2-87.3-14.8-173.6-40.2-256.3 0.2 0 0.3-0.1 0.5-0.2 6.2-2.2 9.5-8.9 7.5-15.2 28.9 90.1 43.8 183.7 44.4 278.4zM693.5 824.1c-2.2 2.5-5.4 4-9 4h-2.9l-7.4-11.8c-0.1-0.1-0.2-0.3-0.2-0.4h10.5v-6.1l9 14.3z" fill="#8A278E" p-id="8537"></path><path d="M684.6 809.8v6.1H674c-1.1-1.8-1.6-3.9-1.6-6.1V568.6c0-4.8 2.8-9.1 7.2-11.1 1.6-0.7 3.2-1 4.9-1 0 4 0.1 8.1 0.1 12.2v241.1z" fill="#8A278E" p-id="8538"></path><path d="M674.2 816.3l7.4 11.8h-88.3l-2.8-12.2H674c0.1 0.1 0.2 0.2 0.2 0.4zM684.5 556.4c-1.6 0-3.3 0.3-4.9 1-4.4 2-7.2 6.3-7.2 11.1 0-91-13.7-181.1-40.7-268h8.9c1.2 0 2.4-0.2 3.7-0.5 25.4 82.8 39 169.1 40.2 256.4z" fill="#8A278E" p-id="8539"></path><path d="M674 815.9h-53.4v-12.2h51.8v6.1c0 2.2 0.5 4.3 1.6 6.1z" fill="#8A278E" p-id="8540"></path><path d="M672.4 568.6v235.1h-51.8v-230c12.4-19.3 19.6-42.3 19.6-66.9 0-31.3-11.7-60.1-30.9-82-6.7-42.1-16.3-83.6-28.7-124.2h51.2c26.9 86.9 40.6 177 40.6 268z" fill="#FCC58D" p-id="8541"></path><path d="M652.2 284.7c2 6.3-1.3 13-7.5 15.2-0.2 0-0.3 0.1-0.5 0.2-1.2-3.9-2.4-7.8-3.7-11.6-1.3-4.1-2.6-8.1-4-12.1h4c5.4-0.1 10.1 3.3 11.7 8.3z" fill="#8A278E" p-id="8542"></path><path d="M640.6 288.5c1.3 3.9 2.5 7.8 3.7 11.6-1.2 0.4-2.4 0.5-3.7 0.5h-60.1c-1.3-4.1-2.5-8.1-3.8-12.2h63.9zM652.2 284.7c-1.6-5-6.3-8.4-11.6-8.4h-4C611.2 201 576 128.9 531.6 62l-16-24-16 24c-2.9 4.4-5.8 8.8-8.6 13.3-2.5 3.9-5 7.8-7.3 11.7-37 59.8-66.8 123.3-89.1 189.3h-4c-5.3 0-9.9 3.4-11.6 8.4 26.1-81.2 63.3-158.4 110.5-229.4l16-24.1c2.3-3.4 6-5.4 10.2-5.4 4.1 0 7.8 2 10.1 5.4l16 24.1c47.1 71 84.3 148.2 110.4 229.4z" fill="#8A278E" p-id="8543"></path><path d="M640.6 288.4c0 0.1 0 0.1 0 0H390.5c-1.3 3.9-2.4 7.7-3.7 11.6-2.4-0.8-4.7-2.3-6.2-4.4-2.3-3.1-2.9-7.2-1.8-10.9 1.6-5 6.3-8.4 11.6-8.4h4c-1.3 4-2.7 8.1-4 12.1h250.2z" fill="#8A278E" p-id="8544"></path><path d="M636.6 276.3c1.4 4 2.7 8.1 4 12.1h-64c-1.3-4.1-2.6-8.1-4-12.1h64zM636.6 276.3h-64 51.1c-25-73.3-59.4-143-102.3-207.5l-5.8-8.8-5.9 8.8c-6.5 9.8-12.9 19.8-19 29.8-2.4-3.9-4.7-7.8-7.1-11.7 2.4-3.9 4.9-7.8 7.3-11.7 2.8-4.4 5.7-8.9 8.6-13.3l16-24 16 24c44.5 67 79.7 139.1 105.1 214.4z" fill="#8A278E" p-id="8545"></path><path d="M623.8 276.2h-51.1c-20.8-61.7-48.2-121.2-81.9-177.6 6.1-10.1 12.4-20 19-29.8l5.9-8.8 5.8 8.8c42.8 64.5 77.2 134.2 102.3 207.4z" fill="#E19175" p-id="8546"></path><path d="M640.2 506.9c0 24.6-7.2 47.5-19.6 66.9v-5.1c0-7-0.1-14.1-0.3-21.1 5-12.6 7.6-26.3 7.6-40.7 0-20.4-5.5-39.6-15-56.1-1.1-8.6-2.4-17.3-3.7-25.9 19.3 21.9 31 50.6 31 82z" fill="#8A278E" p-id="8547"></path><path d="M628 506.9c0 14.4-2.7 28.1-7.6 40.7-0.8-32.4-3.2-64.8-7.4-96.8 9.5 16.4 15 35.6 15 56.1zM620.6 803.7v12.2h-30l-0.6-2.7c-1.2-5.4-5.9-9.2-11.4-9.5h42z" fill="#8A278E" p-id="8548"></path><path d="M620.6 573.7v230H358.8V568.6c0-91 13.7-181.1 40.7-268h181c12.5 40.6 22.1 82.1 28.7 124.2-22.8-26.1-56.3-42.6-93.6-42.6-68.7 0-124.6 55.9-124.6 124.6 0 68.7 55.9 124.6 124.6 124.6 44.1 0.1 82.9-23 105-57.7z" fill="#FCC58D" p-id="8549"></path><path d="M620.6 568.6v5.1c-22.1 34.7-60.9 57.7-105 57.7-68.7 0-124.6-55.9-124.6-124.6 0-68.7 55.9-124.6 124.6-124.6 37.3 0 70.8 16.5 93.6 42.6 1.4 8.6 2.6 17.2 3.7 25.9-19.4-33.7-55.7-56.3-97.4-56.3-62.1 0-112.4 50.3-112.4 112.4 0 62.1 50.4 112.4 112.4 112.4 47.7 0 88.5-29.8 104.7-71.8 0.3 7.1 0.4 14.2 0.4 21.2z" fill="#8A278E" p-id="8550"></path><path d="M613 450.7c4.2 32 6.6 64.3 7.4 96.8-16.2 42-57 71.8-104.7 71.8-62.1 0-112.4-50.3-112.4-112.4 0-62.1 50.4-112.4 112.4-112.4 41.5 0 77.9 22.6 97.3 56.2z m2.8 56.2c0-55.2-45-100.2-100.2-100.2-55.3 0-100.2 44.9-100.2 100.2 0 55.3 44.9 100.2 100.2 100.2 55.2 0 100.2-45 100.2-100.2zM605.2 880.9c0.8 3.6 0 7.4-2.4 10.3-2.4 2.9-5.8 4.6-9.5 4.6H427.4c-3.7 0-7.2-1.7-9.5-4.6-2.3-2.9-3.2-6.7-2.4-10.3l11.9-52.9h12.5l-12.5 55.6h165.9L580.8 828h12.5l11.9 52.9z" fill="#8A278E" p-id="8551"></path><path d="M580.9 828.1l12.5 55.5h-62.9l-2.8-12.1h50.4l-9.7-43.4zM590.6 815.9l2.8 12.2h-12.5l-2.8-12.2z" fill="#8A278E" p-id="8552"></path><path d="M590 813.2l0.6 2.7H430.1l0.6-2.7c1.3-5.5 6.2-9.5 11.9-9.5h136c5.5 0.3 10.2 4.1 11.4 9.5z" fill="#8A278E" p-id="8553"></path><path d="M515.6 406.7c55.2 0 100.2 44.9 100.2 100.2 0 55.3-45 100.2-100.2 100.2-55.3 0-100.2-44.9-100.2-100.2 0-55.3 44.9-100.2 100.2-100.2z m76.1 100.2c0-42-34.1-76.1-76.1-76.1-42 0-76.1 34.1-76.1 76.1 0 42 34.2 76.1 76.1 76.1 42 0 76.1-34.1 76.1-76.1z" fill="#AAE0F9" p-id="8554"></path><path d="M578.1 815.9l2.8 12.2H518l-2.8-12.2zM580.5 300.6H390.6c-1.3 0-2.5-0.2-3.7-0.6 1.2-3.9 2.4-7.7 3.7-11.6h186.1c1.3 4.1 2.5 8.2 3.8 12.2z" fill="#8A278E" p-id="8555"></path><path d="M568.4 828.1l9.7 43.4h-50.4l-9.7-43.4z" fill="#AAE0F9" p-id="8556"></path><path d="M572.6 276.3c1.4 4 2.7 8.1 4 12.1H390.5c1.3-4.1 2.6-8.1 4-12.1h178.1zM572.6 276.2c0.1 0 0 0.1 0 0H394.5c22.3-66 52.1-129.6 89.1-189.3 2.4 3.9 4.8 7.8 7.1 11.7-34.1 56-62.1 115.5-83.3 177.6h165.2z" fill="#8A278E" p-id="8557"></path><path d="M572.6 276.2H407.4c21.3-62.1 49.2-121.6 83.3-177.6 33.8 56.4 61.2 115.9 81.9 177.6z" fill="#F8A882" p-id="8558"></path><path d="M515.6 430.8c42 0 76.1 34.1 76.1 76.1 0 42-34.1 76.1-76.1 76.1-42 0-76.1-34.1-76.1-76.1 0-42 34.1-76.1 76.1-76.1z m63.9 76.1c0-35.3-28.6-63.9-63.9-63.9s-64 28.6-64 63.9 28.6 64 64 64c35.3-0.1 63.9-28.7 63.9-64z" fill="#8A278E" p-id="8559"></path><path d="M515.6 442.9c35.3 0 63.9 28.6 63.9 63.9s-28.6 64-63.9 64-64-28.6-64-64c0-35.2 28.7-63.9 64-63.9z m51.7 64c0-28.5-23.2-51.7-51.7-51.7-28.5 0-51.8 23.2-51.8 51.7s23.2 51.8 51.8 51.8c28.5-0.1 51.7-23.3 51.7-51.8z" fill="#8A278E" p-id="8560"></path><path d="M515.6 455.1c28.5 0 51.7 23.2 51.7 51.7s-23.2 51.8-51.7 51.8c-28.5 0-51.8-23.2-51.8-51.8s23.3-51.7 51.8-51.7z" fill="#C8D4DB" p-id="8561"></path><path d="M527.7 871.5l2.8 12.1H427.4l12.5-55.5h12.5l-9.7 43.4z" fill="#8A278E" p-id="8562"></path><path d="M518 828.1l9.7 43.4h-85l9.7-43.4z" fill="#AAE0F9" p-id="8563"></path><path d="M515.2 815.9l2.8 12.2h-78.1l2.8-12.2z" fill="#8A278E" p-id="8564"></path><path d="M499.6 62c-2.9 4.4-5.8 8.8-8.6 13.3 2.8-4.4 5.7-8.9 8.6-13.3z" fill="#00445D" p-id="8565"></path><path d="M442.7 815.9l-2.8 12.2h-12.5l2.8-12.2z" fill="#8A278E" p-id="8566"></path><path d="M358.8 803.7h83.9c-5.7 0-10.6 3.9-11.9 9.5l-0.6 2.7H352c1.1-1.8 1.6-3.9 1.6-6.1V568.6c0-4.7-2.7-8.9-6.9-11 1-87.8 14.7-174.5 40.2-257.6 1.2 0.4 2.4 0.6 3.7 0.6h8.9c-27 86.9-40.7 177-40.7 268v235.1z" fill="#8A278E" p-id="8567"></path><path d="M430.2 815.9l-2.8 12.2h-80.8c-0.7 0-1.4 0-2.1-0.2l7.3-11.6c0.1-0.1 0.2-0.3 0.2-0.4h78.2zM380.7 295.6c1.5 2.1 3.7 3.7 6.2 4.4-25.5 83.1-39.2 169.8-40.2 257.6-0.1-0.1-0.2-0.1-0.3-0.2-3.9-1.7-8.4-1.3-11.9 1.2 1-93.1 15.9-185.2 44.5-273.9-1.2 3.7-0.6 7.7 1.7 10.9z" fill="#8A278E" p-id="8568"></path><path d="M353.6 568.6v241.2c0 2.1-0.5 4.2-1.6 6.1h-5.4V568.6c0-3.7 0-7.3 0.1-11 4.2 2 6.9 6.3 6.9 11z" fill="#8A278E" p-id="8569"></path><path d="M352 815.9c0 0.1-0.1 0.3-0.2 0.4l-7.3 11.6c-4.4-0.8-8-3.9-9.4-8l6.3-10.1V568.6l-7 6.3v-6.3-9.9c3.5-2.4 8-2.9 11.9-1.2 0.1 0 0.2 0.1 0.3 0.2 0 3.7-0.1 7.3-0.1 11V816h5.5z" fill="#8A278E" p-id="8570"></path><path d="M344.5 827.9l-104.9 167c-2.3 3.6-6.2 5.7-10.3 5.7-1.1 0-2.3-0.2-3.4-0.5-5.2-1.5-8.8-6.3-8.8-11.7V738.1c0-46.9 19.9-91.7 54.7-123.1l61.4-55.4c0.4-0.3 0.8-0.7 1.2-0.9v16.2L298.8 607 280 624c-32.3 29.1-50.7 70.6-50.7 114.1v250.3l105.8-168.5c1.4 4.1 5 7.2 9.4 8z" fill="#8A278E" p-id="8571"></path><path d="M341.4 568.6v241.2l-6.3 10.1c-0.4-1.3-0.7-2.6-0.7-4v-241l7-6.3z" fill="#8A278E" p-id="8572"></path><path d="M335.1 819.9L229.3 988.4V738.1c0-43.5 18.4-85 50.7-114.1l18.8-16.9v16.4l-10.6 9.6c-29.7 26.8-46.7 65-46.7 105v208l57.3-91.3v22.9l36.3-57.8z" fill="#8A278E" p-id="8573"></path><path d="M335.1 819.9l-36.3 57.8v-22.9l30.5-48.5V596l-30.5 27.5v-16.4l35.6-32.1v241c0 1.3 0.3 2.6 0.7 3.9z" fill="#8A278E" p-id="8574"></path><path d="M329.3 596v210.3l-30.5 48.5V623.5z" fill="#E19175" p-id="8575"></path><path d="M298.8 623.5v231.3l-57.3 91.3v-208c0-40 17-78.3 46.7-105l10.6-9.6z" fill="#F8A882" p-id="8576"></path></svg>