<?xml version="1.0" standalone="no"?><!DOCTYPE svg PUBLIC "-//W3C//DTD SVG 1.1//EN" "http://www.w3.org/Graphics/SVG/1.1/DTD/svg11.dtd"><svg t="1622169182930" class="icon" viewBox="0 0 1024 1024" version="1.1" xmlns="http://www.w3.org/2000/svg" p-id="8806" xmlns:xlink="http://www.w3.org/1999/xlink" width="200" height="200"><defs><style type="text/css"></style></defs><path d="M443.733333 287.288889c-116.622222 29.392593-202.903704 134.637037-202.903703 259.792592C240.82963 694.992593 361.244444 815.407407 509.155556 815.407407 657.066667 814.459259 777.481481 694.992593 777.481481 547.081481c0-125.155556-86.281481-230.4-202.903703-259.792592-0.948148-2.844444-9.481481-4.740741-21.807408-5.688889l49.303704-75.851852-54.044444-57.837037H469.333333l-54.044444 57.837037 49.303704 75.851852c-11.377778 0.948148-19.911111 2.844444-20.85926 5.688889z m65.422223 459.851852c-110.933333 0-200.059259-90.074074-200.05926-200.05926 0-95.762963 67.318519-176.355556 157.392593-195.318518H469.333333c14.222222-2.844444 40.77037-3.792593 40.770371-3.792593s26.548148 1.896296 40.77037 3.792593H553.718519C643.792593 371.674074 711.111111 451.318519 711.111111 547.081481c-0.948148 109.985185-91.022222 200.059259-201.955555 200.05926z" fill="#EBEBEC" p-id="8807"></path><path d="M480.711111 307.2c-147.911111 0-268.325926 120.414815-268.325926 268.325926C212.385185 723.437037 332.8 843.851852 480.711111 843.851852 628.622222 843.851852 749.037037 723.437037 749.037037 575.525926c-0.948148-147.911111-120.414815-268.325926-268.325926-268.325926z m0 468.385185c-110.933333 0-200.059259-90.074074-200.059259-200.059259 0-110.933333 90.074074-200.059259 200.059259-200.059259 110.933333 0 200.059259 90.074074 200.059259 200.059259 0 109.985185-90.074074 200.059259-200.059259 200.059259z" fill="#FFCF08" p-id="8808"></path><path d="M480.711111 352.711111c-122.311111 0-221.866667 99.555556-221.866667 221.866667C258.844444 696.888889 358.4 796.444444 480.711111 796.444444c122.311111 0 221.866667-99.555556 221.866667-221.866666 0-122.311111-99.555556-221.866667-221.866667-221.866667z m0 422.874074c-110.933333 0-200.059259-90.074074-200.059259-200.059259 0-110.933333 90.074074-200.059259 200.059259-200.059259 110.933333 0 200.059259 90.074074 200.059259 200.059259 0 109.985185-90.074074 200.059259-200.059259 200.059259z" fill="#FDB718" p-id="8809"></path><path d="M546.133333 315.733333c-1.896296-4.740741-34.133333-8.533333-65.422222-8.533333-31.288889 0-63.525926 2.844444-65.422222 8.533333-4.740741 13.274074 19.911111 64.474074 19.911111 64.474074 11.377778-2.844444 45.511111-5.688889 45.511111-5.688888s34.133333 1.896296 45.511111 5.688888c0 0 24.651852-51.2 19.911111-64.474074z" fill="#FFFFFF" p-id="8810"></path><path d="M425.718519 360.296296c4.740741 11.377778 8.533333 19.911111 8.533333 19.911111 0.948148 0 2.844444-0.948148 3.792592-0.948148 13.274074-2.844444 27.496296-4.740741 41.718519-4.74074 14.222222 0 28.444444 1.896296 41.718518 4.74074 1.896296 0 2.844444 0.948148 3.792593 0.948148 0 0 3.792593-8.533333 8.533333-19.911111-17.066667-4.740741-36.02963-6.637037-54.992592-6.637037-17.066667-0.948148-36.02963 1.896296-53.096296 6.637037z" fill="#DADAD7" p-id="8811"></path><path d="M453.214815 233.244444l18.962963 100.503704h8.533333V233.244444z" fill="#AB0F14" p-id="8812"></path><path d="M480.711111 233.244444v-57.837037h-10.42963l-17.066666 57.837037z" fill="#C0151B" p-id="8813"></path><path d="M386.844444 233.244444l65.422223 100.503704H464.592593l-38.874074-100.503704z" fill="#AB0F14" p-id="8814"></path><path d="M458.903704 175.407407h-18.014815l-54.044445 57.837037h38.874075z" fill="#C0151B" p-id="8815"></path><path d="M425.718519 233.244444L464.592593 333.748148h7.585185l-18.962963-100.503704z" fill="#D71920" p-id="8816"></path><path d="M453.214815 233.244444l17.066666-57.837037h-11.377777l-33.185185 57.837037z" fill="#ED1C24" p-id="8817"></path><path d="M480.711111 233.244444v100.503704h7.585185l18.962963-100.503704z" fill="#AB0F14" p-id="8818"></path><path d="M507.259259 233.244444l-17.066666-57.837037h-9.481482v57.837037zM501.57037 175.407407l33.185186 57.837037h38.874074l-54.044445-57.837037z" fill="#C0151B" p-id="8819"></path><path d="M496.82963 333.748148h11.377777l65.422223-100.503704h-38.874074z" fill="#AB0F14" p-id="8820"></path><path d="M507.259259 233.244444l-18.962963 100.503704h8.533334l37.925926-100.503704z" fill="#D71920" p-id="8821"></path><path d="M534.755556 233.244444l-33.185186-57.837037h-11.377777l17.066666 57.837037z" fill="#ED1C24" p-id="8822"></path></svg>