<?xml version="1.0" standalone="no"?><!DOCTYPE svg PUBLIC "-//W3C//DTD SVG 1.1//EN" "http://www.w3.org/Graphics/SVG/1.1/DTD/svg11.dtd"><svg t="1622165608693" class="icon" viewBox="0 0 1024 1024" version="1.1" xmlns="http://www.w3.org/2000/svg" p-id="5317" xmlns:xlink="http://www.w3.org/1999/xlink" width="200" height="200"><defs><style type="text/css"></style></defs><path d="M289 810c-3.9 0-7.2-1.2-9.5-3.6l-0.6-0.6-7.3-11.1c-5-5.7-4.8-14.4 0.6-19.9l15.9-16.1c3.2-3.2 8.4-5.3 13.4-5.3 3.9 0 7.2 1.2 9.5 3.6l0.6 0.6 7.3 11.1c5 5.7 4.8 14.4-0.6 19.9l-15.9 16.1c-3.2 3.2-8.5 5.3-13.4 5.3z" fill="#9E9E78" p-id="5318"></path><path d="M301.4 761.3c1.6 0 3.1 0.4 4 1.3l7.2 11c2.6 2.6 2.6 6.8 0.1 9.4L296.8 799.1c-1.7 1.7-4.9 2.9-7.8 2.9-1.6 0-3.1-0.4-4-1.3l-7.2-11c-2.6-2.6-2.6-6.8-0.1-9.4l15.9-16.1c1.7-1.6 5-2.9 7.8-2.9m0-15.7c-7.1 0-14.4 2.9-19 7.6l-15.9 16.1c-8.2 8.3-8.6 21.4-1.3 30.2l6.5 10 0.9 1.4 1.2 1.2c3.8 3.8 9.2 5.9 15.1 5.9 7.1 0 14.4-2.9 19-7.6l15.9-16.1c8.2-8.3 8.6-21.4 1.3-30.2l-6.5-10-0.9-1.4-1.2-1.2c-3.8-3.8-9.2-5.9-15.1-5.9z" fill="#592900" p-id="5319"></path><path d="M359.2 743.4c-3.9 0-7.2-1.2-9.5-3.6l-0.6-0.6-7.3-11.1c-5-5.7-4.8-14.4 0.6-19.9l15.9-16.1c3.2-3.2 8.4-5.3 13.4-5.3 3.9 0 7.2 1.2 9.5 3.6l0.6 0.6 7.3 11.1c5 5.7 4.8 14.4-0.6 19.9l-15.9 16.2c-3.2 3.2-8.5 5.2-13.4 5.2z" fill="#9E9E78" p-id="5320"></path><path d="M371.6 694.8c1.6 0 3.1 0.4 4 1.3l7.2 11c2.6 2.6 2.6 6.8 0.1 9.4L367 732.6c-1.7 1.7-4.9 2.9-7.8 2.9-1.6 0-3.1-0.4-4-1.3l-7.2-11c-2.6-2.6-2.6-6.8-0.1-9.4l15.9-16.1c1.7-1.6 5-2.9 7.8-2.9m0-15.8c-7.1 0-14.4 2.9-19 7.6l-15.9 16.1c-4.2 4.3-6.5 9.9-6.5 15.9 0 5.3 1.9 10.3 5.2 14.3l6.5 10 0.9 1.4 1.2 1.2c3.8 3.8 9.2 5.9 15.1 5.9 7.1 0 14.4-2.9 19-7.6l15.9-16.1c8.2-8.3 8.6-21.4 1.3-30.2l-6.5-10-0.9-1.4-1.2-1.2c-3.8-3.8-9.2-5.9-15.1-5.9z" fill="#592900" p-id="5321"></path><path d="M450.3 604.1L244 813.8c-16.9 14.5-29.9 21.6-47.7 16.8-23.8-6.3-38.1-30.5-32.2-54.4l110.2-440.8 176 268.7z" fill="#DDDDDD" p-id="5322"></path><path d="M207 842.6c-4.2 0-8.7-0.6-13.4-1.8-29.2-7.7-47-37.8-39.7-67.1l116-464.1 193.8 295.9-212.9 216.2c-14.8 12.7-28 20.9-43.8 20.9z m71.7-481.3L174.3 778.8c-4.6 18.2 6.5 36.9 24.6 41.7 12.1 3.2 21.3-0.3 37.9-14.4l200-203.3-158.1-241.5z" fill="#592900" p-id="5323"></path><path d="M205.8 738.5c-0.3 0-0.5 0-0.8-0.1-1.4-0.4-2.2-1.9-1.7-3.3l6.3-20.1c0.4-1.4 1.9-2.1 3.3-1.7 1.4 0.4 2.2 1.9 1.7 3.3l-6.3 20.1c-0.3 1.1-1.3 1.8-2.5 1.8z m12.6-40.1c-0.3 0-0.5 0-0.8-0.1-1.4-0.4-2.2-1.9-1.7-3.3l6.3-20.1c0.4-1.4 1.9-2.2 3.3-1.7 1.4 0.4 2.2 1.9 1.7 3.3l-6.3 20.1c-0.3 1.1-1.3 1.8-2.5 1.8z m12.7-40.1c-0.3 0-0.5 0-0.8-0.1-1.4-0.4-2.2-1.9-1.7-3.3l6.3-20.1c0.4-1.4 1.9-2.2 3.3-1.7 1.4 0.4 2.2 1.9 1.7 3.3l-6.3 20.1c-0.4 1.1-1.4 1.8-2.5 1.8z m12.6-40.1c-0.3 0-0.5 0-0.8-0.1-1.4-0.4-2.2-1.9-1.7-3.3l6.3-20.1c0.4-1.4 1.9-2.1 3.3-1.7s2.2 1.9 1.7 3.3l-6.3 20.1c-0.4 1.1-1.4 1.8-2.5 1.8z m12.6-40.1c-0.3 0-0.5 0-0.8-0.1-1.4-0.4-2.2-1.9-1.7-3.3l6.3-20.1c0.4-1.4 1.9-2.1 3.3-1.7 1.4 0.4 2.2 1.9 1.7 3.3l-6.3 20.1c-0.4 1.1-1.4 1.8-2.5 1.8z m12.6-40.1c-0.3 0-0.5 0-0.8-0.1-1.4-0.4-2.2-1.9-1.7-3.3l6.3-20.1c0.4-1.4 1.9-2.2 3.3-1.7 1.4 0.4 2.2 1.9 1.7 3.3l-6.3 20.1c-0.4 1.1-1.4 1.8-2.5 1.8z" fill="#592900" p-id="5324"></path><path d="M769 491.4c-7.4 0-10.5-6.6-11.8-9.9l-7.2-11-0.3-0.8c-2.9-7.5 0.8-15.9 8.3-18.8l21.1-8.2c1.7-0.7 3.5-1 5.3-1 5.6 0 10.8 3.3 13.2 8.4l7.3 11.1 0.3 0.8c1.6 4 0.8 8.7-2.1 13-2.2 3.4-5.4 6.1-8.6 7.3l-21.1 8.2c-1.5 0.6-2.9 0.9-4.4 0.9z" fill="#9E9E78" p-id="5325"></path><path d="M784.4 449.7c2.7 0 5.2 1.6 6.2 4.3l7.2 11c1.3 3.4-2.7 8.8-6.2 10.2l-21.1 8.2c-0.5 0.2-1 0.3-1.5 0.3-2.4 0-3.7-2.8-4.8-5.7l-7.2-11c-1.3-3.4 0.4-7.3 3.8-8.6l21.1-8.2c0.9-0.4 1.7-0.5 2.5-0.5m0-15.8c-2.8 0-5.5 0.5-8.1 1.5l-21.1 8.2c-5.6 2.2-10 6.4-12.4 11.9s-2.6 11.6-0.4 17.2l0.6 1.6 0.9 1.4 6.4 9.8c3 6.8 8.6 14 18.8 14 2.4 0 4.8-0.5 7.2-1.4l21.1-8.2c4.7-1.8 9.3-5.6 12.4-10.3 4.3-6.5 5.3-13.8 2.8-20.2l-0.6-1.6-0.9-1.4-6.6-10c-3.8-7.6-11.7-12.5-20.1-12.5z" fill="#592900" p-id="5326"></path><path d="M679 529.3c-5.7 0-10.9-3.3-13.2-8.3l-8.7-13.3-0.3-0.8c-1.4-3.6-1.3-7.6 0.3-11.1 1.6-3.6 4.4-6.3 8.1-7.7l0.6-0.2 24.8-7.5c1.6-0.6 3.2-0.9 4.9-0.9 5.6 0 10.8 3.3 13.2 8.4l7.3 11.1 0.3 0.8c1.6 4 0.8 8.7-2.1 13-2.2 3.4-5.4 6.1-8.6 7.3l-21.1 8.2c-1.9 0.7-3.7 1-5.5 1z" fill="#9E9E78" p-id="5327"></path><path d="M695.3 487.4c2.7 0 5.2 1.6 6.2 4.3l7.2 11c1.3 3.4-2.7 8.8-6.2 10.2l-21.1 8.2c-0.8 0.3-1.6 0.5-2.5 0.5-2.7 0-5.3-1.6-6.3-4.2l-8.6-13.2c-1.3-3.4 0.4-7.3 3.8-8.6l25-7.6c0.9-0.4 1.7-0.6 2.5-0.6m0-15.8c-2.5 0-5 0.4-7.4 1.2l-24.6 7.4-0.6 0.2-0.6 0.2c-11.5 4.5-17.3 17.5-12.8 29l0.6 1.6 0.9 1.4 8 12.2c3.8 7.4 11.6 12.3 20.1 12.3 2.8 0 5.5-0.5 8.2-1.5l21.1-8.2c11.1-4.3 19.9-18.3 15.2-30.6l-0.6-1.6-0.9-1.4-6.6-10c-3.7-7.3-11.5-12.2-20-12.2z" fill="#592900" p-id="5328"></path><path d="M551.4 537.8l274.7-105.3c20-9.7 31.7-18.8 34.5-37 3.8-24.3-12.7-47.1-37-51.2l-448.1-75.1 175.9 268.6z" fill="#DDDDDD" p-id="5329"></path><path d="M547.3 550.7L353.5 254.8l471.8 79.1c29.8 5 50.3 33.3 45.7 63.2-3.5 22.8-18 34-40.3 44.9l-0.8 0.4-282.6 108.3zM397.4 283.5l158.2 241.5 266.3-102.1c19.5-9.5 26.4-16.6 28.3-29 2.9-18.5-9.9-36.1-28.4-39.2l-424.4-71.2z" fill="#592900" p-id="5330"></path><path d="M550.5 345.6h-0.3l-10.4-1.1c-1.4-0.2-2.5-1.4-2.3-2.9 0.2-1.4 1.5-2.5 2.9-2.3l10.4 1.1c1.4 0.2 2.5 1.4 2.3 2.9-0.1 1.3-1.3 2.3-2.6 2.3zM750.4 367h-0.3l-20-2.1c-1.4-0.2-2.5-1.4-2.3-2.9 0.2-1.4 1.5-2.5 2.9-2.3l20 2.1c1.4 0.2 2.5 1.4 2.3 2.9-0.1 1.3-1.3 2.3-2.6 2.3z m-40-4.3h-0.3l-20-2.1c-1.4-0.2-2.5-1.4-2.3-2.9 0.2-1.4 1.5-2.5 2.9-2.3l20 2.1c1.4 0.2 2.5 1.4 2.3 2.9-0.1 1.3-1.2 2.3-2.6 2.3z m-39.9-4.3h-0.3l-20-2.1c-1.4-0.2-2.5-1.4-2.3-2.9 0.2-1.4 1.5-2.5 2.9-2.3l20 2.1c1.4 0.2 2.5 1.4 2.3 2.9-0.2 1.3-1.3 2.3-2.6 2.3z m-40-4.2h-0.3l-20-2.1c-1.4-0.2-2.5-1.4-2.3-2.9 0.2-1.4 1.5-2.5 2.9-2.3l20 2.1c1.4 0.2 2.5 1.4 2.3 2.9-0.2 1.3-1.3 2.3-2.6 2.3z m-40-4.3h-0.3l-20-2.1c-1.4-0.2-2.5-1.4-2.3-2.9 0.2-1.4 1.5-2.5 2.9-2.3l20 2.1c1.4 0.2 2.5 1.4 2.3 2.9-0.2 1.3-1.3 2.3-2.6 2.3zM780.9 370.2h-0.3l-10.4-1.1c-1.4-0.2-2.5-1.4-2.3-2.9 0.2-1.4 1.5-2.5 2.9-2.3l10.4 1.1c1.4 0.2 2.5 1.4 2.3 2.9-0.2 1.3-1.3 2.3-2.6 2.3z" fill="#592900" p-id="5331"></path><path d="M486.4 840.5l-7.5-113.2 120.3 39.1-81.9 85.4c-10.8 11.3-29.9 4.3-30.9-11.3z" fill="#AD3525" p-id="5332"></path><path d="M504.5 867.9c-3.3 0-6.6-0.6-9.9-1.8-10.8-3.9-17.9-13.5-18.7-24.9l-8.5-128.7 151 49-93.4 97.5c-5.6 5.8-12.9 8.9-20.5 8.9zM490.4 742.1l6.5 97.8c0.3 4.4 3.5 6 4.9 6.5s4.9 1.3 8-1.9l70.3-73.3-89.7-29.1z" fill="#592900" p-id="5333"></path><path d="M757.6 662.9l-100.9-52.1-12.3 125.9 111-40.9c14.8-5.4 16.1-25.7 2.2-32.9z" fill="#AD3525" p-id="5334"></path><path d="M632.4 752.3l15.4-158 114.6 59.3c10.2 5.3 16.1 15.7 15.4 27.1-0.7 11.4-7.8 21-18.6 25l-126.8 46.6z m33.3-125l-9.1 93.8 95.3-35.1c4.1-1.5 4.8-5.1 4.9-6.6 0.1-1.5-0.1-5.1-4-7.1l-87.1-45z" fill="#592900" p-id="5335"></path><path d="M579.6 796.8l-131.3-83.6-223.9-341.9C187 314.2 194.1 223.1 251.2 185.7c57.1-37.4 143.5-7.5 180.9 49.6L656 577.2l24.2 153.8c4 25.6-7.3 51.2-29 65.4-21.7 14.2-49.7 14.3-71.6 0.4z" fill="#FFFFFF" p-id="5336"></path><path d="M656 577.1L409.4 200.5s-77.3-67.8-158.1-14.8-48 148.1-48 148.1l247.4 377.8 29.2-19.1-177.2-270.7-38-56.2s-50-105.2 9.8-144.4 133.4 46.1 133.4 46.1l216.5 330.5L656 577.1z" fill="#EFEFEF" p-id="5337"></path><path d="M575.2 790.1l-131.3-83.6 48.3-82.1c13.8-23.5 37.8-39.2 64.8-42.5l94.6-11.5 24.2 153.8c4 25.6-7.3 51.2-29 65.4-21.7 14.2-49.7 14.4-71.6 0.5z" fill="#F04726" p-id="5338"></path><path d="M646.8 789.6l-22.1 24-72.3-24-108.5-83.2 42.9-82 29.2-34.4z" fill="#FC715E" p-id="5339"></path><path d="M610.6 810.9c-14.3 0-28.6-4-41.1-11.9l-139.8-89.2 53.5-90.8c15.4-26.1 42.5-43.9 72.6-47.6l104.6-12.7 25.8 163.9c4.7 29.6-8.6 59.4-33.6 75.8-12.8 8.3-27.4 12.5-42 12.5zM458.1 703l122.8 78.2c18.3 11.7 42 11.5 60.2-0.4s27.8-33.5 24.4-55l-22.6-143.8-84.5 10.3c-23.6 2.9-45 16.8-57 37.4l-43.3 73.3z" fill="#592900" p-id="5340"></path><path d="M615 822.9c-15.3 0-30.5-4.2-43.9-12.8l-134.2-85.5L220.5 394.1c-20.4-31.2-31.3-74.8-29.2-116.7 2.4-47.5 20.6-84.8 51.3-104.9s72.1-21.9 116.7-5.1c39.3 14.8 74.9 42.3 95.3 73.4l216.5 330.5 24.7 157.2c5 31.7-9.1 63.5-36 81-13.5 8.9-29.1 13.4-44.8 13.4z m-26.9-39.4c16.6 10.6 38 10.4 54.4-0.3 16.5-10.8 25.1-30.3 22.1-49.8L641 582.9 428.2 258c-16.6-25.4-47.3-48.9-80.1-61.2-34.4-13-66.5-12.2-88.3 2-21.7 14.2-35.3 43.4-37.1 80.1-1.8 35 7.5 72.4 24.1 97.9l212.8 324.9 128.5 81.8z" fill="#592900" p-id="5341"></path><path d="M378.6 543.1c-1.7 0-3.4-0.8-4.4-2.4l-93.6-142.9c-1.6-2.4-0.9-5.7 1.5-7.3 2.4-1.6 5.7-0.9 7.3 1.5L383 534.9c1.6 2.4 0.9 5.7-1.5 7.3-0.9 0.6-1.9 0.9-2.9 0.9z" fill="#592900" p-id="5342"></path><path d="M420.5 607c-1.7 0-3.4-0.8-4.4-2.4l-20.5-31.4c-1.6-2.4-0.9-5.7 1.5-7.3 2.4-1.6 5.7-0.9 7.3 1.5l20.5 31.4c1.6 2.4 0.9 5.7-1.5 7.3-0.9 0.6-1.9 0.9-2.9 0.9z" fill="#592900" p-id="5343"></path><path d="M650.9 806.4c-3.4 0-6.8-1.7-8.8-4.8L478 551.1c-3.2-4.9-1.8-11.4 3-14.6 4.9-3.2 11.4-1.8 14.6 3l164 250.6c3.2 4.9 1.8 11.4-3 14.6-1.8 1.1-3.8 1.7-5.7 1.7z" fill="#592900" p-id="5344"></path><path d="M565 512.3c-1.7 0-3.4-0.8-4.4-2.4l-19.7-30.1c-1.6-2.4-0.9-5.7 1.5-7.3 2.4-1.6 5.7-0.9 7.3 1.5l19.7 30.1c1.6 2.4 0.9 5.7-1.5 7.3-0.9 0.7-1.9 0.9-2.9 0.9z" fill="#592900" p-id="5345"></path><path d="M524 449.8c-1.7 0-3.4-0.8-4.4-2.4L425.1 303.1c-1.6-2.4-0.9-5.7 1.5-7.3s5.7-0.9 7.3 1.5l94.5 144.3c1.6 2.4 0.9 5.7-1.5 7.3-0.9 0.7-1.9 0.9-2.9 0.9z" fill="#592900" p-id="5346"></path><path d="M339.9 214.9c-21.6-7.4-44.6-7.3-65.4 6.3-20.2 13.2-29.2 34.5-31.1 57.7l37 13.8c4.6-11.5 12-21.3 22.4-28.1 10.4-6.8 22.4-9.7 34.8-9.3l2.3-40.4z" fill="#592900" p-id="5347"></path><path d="M243.1 289.5c0.3 26.3 8.9 53.9 20.5 74.5l17.2-11.2c-6.1-17.3-7.1-35-3.4-50.5l-34.3-12.8zM349.7 218.8l-2.1 37.5c15.7 2.8 31.5 10.8 44.9 23.3l17.2-11.3c-14.2-19.2-35.9-38.6-60-49.5z" fill="#825534" p-id="5348"></path></svg>